<svg width="15" height="12" viewBox="0 0 15 12" fill="none" xmlns="http://www.w3.org/2000/svg">
<path d="M0.530121 5.41098C0.373896 5.56726 0.286133 5.77918 0.286133 6.00015C0.286133 6.22112 0.373896 6.43304 0.530121 6.58932L5.24429 11.3035C5.40146 11.4553 5.61196 11.5393 5.83046 11.5374C6.04895 11.5355 6.25796 11.4478 6.41247 11.2933C6.56698 11.1388 6.65462 10.9298 6.65652 10.7113C6.65841 10.4928 6.57442 10.2823 6.42262 10.1252L3.13095 6.83348H14.1668C14.3878 6.83348 14.5998 6.74569 14.756 6.58941C14.9123 6.43313 15.0001 6.22116 15.0001 6.00015C15.0001 5.77914 14.9123 5.56718 14.756 5.41089C14.5998 5.25461 14.3878 5.16682 14.1668 5.16682H3.13095L6.42262 1.87515C6.57442 1.71798 6.65841 1.50748 6.65652 1.28898C6.65462 1.07049 6.56698 0.861475 6.41247 0.706968C6.25796 0.552461 6.04895 0.464821 5.83046 0.462922C5.61196 0.461023 5.40146 0.545019 5.24429 0.696817L0.530121 5.41098Z" fill="#003057"/>
</svg>
