<svg width="40" height="40" viewBox="0 0 40 40" fill="none" xmlns="http://www.w3.org/2000/svg">
<path d="M23.334 5V11.6667C23.334 12.1087 23.5096 12.5326 23.8221 12.8452C24.1347 13.1577 24.5586 13.3333 25.0007 13.3333H31.6673" stroke="#003075" stroke-width="2" stroke-linecap="round" stroke-linejoin="round"/>
<path d="M8.33398 13.3333V8.33333C8.33398 7.44928 8.68517 6.60143 9.31029 5.97631C9.93542 5.35119 10.7833 5 11.6673 5H23.334L31.6673 13.3333V31.6667C31.6673 32.5507 31.3161 33.3986 30.691 34.0237C30.0659 34.6488 29.218 35 28.334 35H20.0007" stroke="#003075" stroke-width="2" stroke-linecap="round" stroke-linejoin="round"/>
<path d="M5 23.333C5 24.6591 5.52678 25.9309 6.46447 26.8685C7.40215 27.8062 8.67392 28.333 10 28.333C11.3261 28.333 12.5979 27.8062 13.5355 26.8685C14.4732 25.9309 15 24.6591 15 23.333C15 22.0069 14.4732 20.7352 13.5355 19.7975C12.5979 18.8598 11.3261 18.333 10 18.333C8.67392 18.333 7.40215 18.8598 6.46447 19.7975C5.52678 20.7352 5 22.0069 5 23.333Z" stroke="#003075" stroke-width="2" stroke-linecap="round" stroke-linejoin="round"/>
<path d="M7.5 28.333L5 36.6663L10 34.1663L15 36.6663L12.5 28.333" stroke="#003075" stroke-width="2" stroke-linecap="round" stroke-linejoin="round"/>
</svg>
