<svg width="18" height="19" viewBox="0 0 18 19" fill="none" xmlns="http://www.w3.org/2000/svg">
<path d="M14.625 13.0625C13.957 13.0625 13.3406 13.2969 12.8578 13.6883L8.00156 10.175C8.08288 9.72867 8.08288 9.27133 8.00156 8.825L12.8578 5.31172C13.3406 5.70312 13.957 5.9375 14.625 5.9375C16.1766 5.9375 17.4375 4.67656 17.4375 3.125C17.4375 1.57344 16.1766 0.3125 14.625 0.3125C13.0734 0.3125 11.8125 1.57344 11.8125 3.125C11.8125 3.39687 11.85 3.65703 11.9227 3.90547L7.31016 7.24531C6.62578 6.33828 5.53828 5.75 4.3125 5.75C2.24062 5.75 0.5625 7.42812 0.5625 9.5C0.5625 11.5719 2.24062 13.25 4.3125 13.25C5.53828 13.25 6.62578 12.6617 7.31016 11.7547L11.9227 15.0945C11.85 15.343 11.8125 15.6055 11.8125 15.875C11.8125 17.4266 13.0734 18.6875 14.625 18.6875C16.1766 18.6875 17.4375 17.4266 17.4375 15.875C17.4375 14.3234 16.1766 13.0625 14.625 13.0625ZM14.625 1.90625C15.2977 1.90625 15.8438 2.45234 15.8438 3.125C15.8438 3.79766 15.2977 4.34375 14.625 4.34375C13.9523 4.34375 13.4062 3.79766 13.4062 3.125C13.4062 2.45234 13.9523 1.90625 14.625 1.90625ZM4.3125 11.5625C3.17578 11.5625 2.25 10.6367 2.25 9.5C2.25 8.36328 3.17578 7.4375 4.3125 7.4375C5.44922 7.4375 6.375 8.36328 6.375 9.5C6.375 10.6367 5.44922 11.5625 4.3125 11.5625ZM14.625 17.0938C13.9523 17.0938 13.4062 16.5477 13.4062 15.875C13.4062 15.2023 13.9523 14.6562 14.625 14.6562C15.2977 14.6562 15.8438 15.2023 15.8438 15.875C15.8438 16.5477 15.2977 17.0938 14.625 17.0938Z" fill="currentColor"/>
</svg>
