<svg width="40" height="39" viewBox="0 0 40 39" fill="none" xmlns="http://www.w3.org/2000/svg">
<path d="M12.5 10.084H27.5V34.4986C27.5 36.1554 26.1569 37.4986 24.5 37.4986H15.5C13.8431 37.4986 12.5 36.1554 12.5 34.4986V10.084Z" stroke="#003075" stroke-width="2"/>
<path d="M27.5 10.5L12.5 10.5L12.5 3.5C12.5 2.94772 12.9477 2.5 13.5 2.5L26.5 2.5C27.0523 2.5 27.5 2.94771 27.5 3.5L27.5 10.5Z" stroke="#003075" stroke-width="2"/>
<path d="M25.5 16H27.5V29H25.5C23.8431 29 22.5 27.6569 22.5 26V19C22.5 17.3431 23.8431 16 25.5 16Z" stroke="#003075" stroke-width="2"/>
<line x1="16.5" y1="3.5" x2="16.5" y2="9.5" stroke="#003075" stroke-width="2"/>
<line x1="23.5" y1="3.5" x2="23.5" y2="9.5" stroke="#003075" stroke-width="2"/>
<line x1="20" y1="3.5" x2="20" y2="9.5" stroke="#003075" stroke-width="2"/>
</svg>
